HIERARCHY
ROOT Hips
{
	OFFSET -0.001795 -0.223333 0.028219
	CHANNELS 6 Xposition Yposition Zposition Zrotation Yrotation Xrotation
	JOINT LeftUpLeg
	{
		OFFSET 0.069520 -0.091406 -0.006815
		CHANNELS 3 Zrotation Yrotation Xrotation
		JOINT LeftLeg
		{
			OFFSET 0.034277 -0.375199 -0.004496
			CHANNELS 3 Zrotation Yrotation Xrotation
			JOINT LeftFoot
			{
				OFFSET -0.013596 -0.397961 -0.043693
				CHANNELS 3 Zrotation Yrotation Xrotation
				JOINT LeftToe
				{
					OFFSET 0.026358 -0.055791 0.119288
					CHANNELS 3 Zrotation Yrotation Xrotation
					End Site
					{
						OFFSET 0.000000 0.000000 0.000000
					}
				}
			}
		}
	}
	JOINT RightUpLeg
	{
		OFFSET -0.067670 -0.090522 -0.004320
		CHANNELS 3 Zrotation Yrotation Xrotation
		JOINT RightLeg
		{
			OFFSET -0.038290 -0.382569 -0.008850
			CHANNELS 3 Zrotation Yrotation Xrotation
			JOINT RightFoot
			{
				OFFSET 0.015774 -0.398415 -0.042312
				CHANNELS 3 Zrotation Yrotation Xrotation
				JOINT RightToe
				{
					OFFSET -0.025372 -0.048144 0.123348
					CHANNELS 3 Zrotation Yrotation Xrotation
					End Site
					{
						OFFSET 0.000000 0.000000 0.000000
					}
				}
			}
		}
	}
	JOINT Spine
	{
		OFFSET -0.002533 0.108963 -0.026696
		CHANNELS 3 Zrotation Yrotation Xrotation
		JOINT Spine1
		{
			OFFSET 0.005487 0.135180 0.001092
			CHANNELS 3 Zrotation Yrotation Xrotation
			JOINT Spine2
			{
				OFFSET 0.001457 0.052922 0.025425
				CHANNELS 3 Zrotation Yrotation Xrotation
				JOINT Neck
				{
					OFFSET -0.002778 0.213870 -0.042857
					CHANNELS 3 Zrotation Yrotation Xrotation
					JOINT Head
					{
						OFFSET 0.005152 0.064970 0.051349
						CHANNELS 3 Zrotation Yrotation Xrotation
						End Site
						{
							OFFSET 0.000000 0.000000 0.000000
						}
					}
				}
				JOINT LeftShoulder
				{
					OFFSET 0.078845 0.121749 -0.034090
					CHANNELS 3 Zrotation Yrotation Xrotation
					JOINT LeftArm
					{
						OFFSET 0.090977 0.030469 -0.008868
						CHANNELS 3 Zrotation Yrotation Xrotation
						JOINT LeftForeArm
						{
							OFFSET 0.259612 -0.012772 -0.027456
							CHANNELS 3 Zrotation Yrotation Xrotation
							JOINT LeftHand
							{
								OFFSET 0.249234 0.008986 -0.001171
								CHANNELS 3 Zrotation Yrotation Xrotation
								End Site
								{
									OFFSET 0.000000 0.000000 0.000000
								}
							}
						}
					}
				}
				JOINT RightShoulder
				{
					OFFSET -0.081759 0.118833 -0.038615
					CHANNELS 3 Zrotation Yrotation Xrotation
					JOINT RightArm
					{
						OFFSET -0.096012 0.032551 -0.009143
						CHANNELS 3 Zrotation Yrotation Xrotation
						JOINT RightForeArm
						{
							OFFSET -0.253742 -0.013329 -0.021401
							CHANNELS 3 Zrotation Yrotation Xrotation
							JOINT RightHand
							{
								OFFSET -0.255298 0.007772 -0.005559
								CHANNELS 3 Zrotation Yrotation Xrotation
								End Site
								{
									OFFSET 0.000000 0.000000 0.000000
								}
							}
						}
					}
				}
			}
		}
	}
}
MOTION
Frames: 14
Frame Time: 0.050000
-0.769006 0.155879 0.448001 -4.171579 -2.939050 -67.281652 11.221745 1.487772 -16.478326 -23.977726 5.289020 14.106026 13.081674 23.416481 0.351410 0.000000 0.000000 0.000000 42.469381 25.984878 -45.019476 -44.260272 38.655985 78.437367 15.817642 5.960528 41.846603 0.000000 0.000000 0.000000 -25.148242 -18.974202 -82.078475 -14.846221 8.060948 14.130136 87.930048 17.144454 101.985229 11.684171 -14.949681 12.857711 0.000000 0.000000 0.000000 21.400540 -11.558246 -1.417290 -51.900488 -5.133260 -17.516437 -111.913782 -71.499262 49.122751 0.000000 0.000000 0.000000 17.997039 13.436863 15.221696 37.845881 13.853508 -1.694271 -48.076067 53.955524 -22.163707 0.000000 0.000000 0.000000
-0.771255 0.156398 0.448498 -4.104889 -2.260170 -67.091266 13.297968 1.731871 -14.587607 -28.955884 4.959486 8.358437 11.542578 21.658133 11.450226 0.000000 0.000000 0.000000 39.902786 25.979391 -48.169952 -37.311211 35.627023 84.204278 13.075964 1.545223 44.794458 0.000000 0.000000 0.000000 -25.820402 -20.020708 -81.887540 -13.846607 7.948212 17.264040 86.582848 18.564185 100.941052 9.917908 -15.942376 16.182337 0.000000 0.000000 0.000000 20.001355 -11.250865 -1.762036 -47.925760 -0.969585 -15.065096 -118.456307 -75.003662 59.082370 0.000000 0.000000 0.000000 20.295499 11.998939 16.159002 37.585796 19.628007 -0.871953 -38.520246 57.847028 -20.583295 0.000000 0.000000 0.000000
-0.773772 0.155924 0.448081 -3.472784 -2.934412 -67.232855 16.578045 2.286716 -12.548724 -34.590029 4.515864 3.547187 15.422350 26.796040 14.968813 0.000000 0.000000 0.000000 38.073460 26.376732 -49.899318 -34.233133 33.089058 85.868936 12.236225 1.546129 42.550269 0.000000 0.000000 0.000000 -24.210846 -18.367217 -83.869069 -15.685154 8.929791 18.184645 83.873767 15.596491 98.416579 5.609618 -17.783508 23.860786 0.000000 0.000000 0.000000 15.691204 -11.051524 -5.274106 -43.163978 7.534457 -13.920581 -111.911723 -74.303790 55.528753 0.000000 0.000000 0.000000 21.983469 14.002747 16.018866 35.253294 23.086470 -0.584107 -22.196588 55.932409 -13.277869 0.000000 0.000000 0.000000
-0.775810 0.156115 0.445620 -3.736494 -1.296969 -67.339250 14.728180 1.900689 -13.649573 -34.274379 4.682939 5.611550 14.249839 25.356721 12.262692 0.000000 0.000000 0.000000 33.669175 24.147364 -51.282150 -34.241210 31.350731 82.762684 13.833085 5.436476 38.215348 0.000000 0.000000 0.000000 -22.269416 -18.798304 -86.075458 -18.137222 10.415999 17.604016 84.374938 13.693460 98.904580 3.319552 -18.723064 27.783536 0.000000 0.000000 0.000000 14.392206 -11.435909 -6.955753 -38.789263 11.929719 -12.239494 -115.637850 -76.086936 61.184144 0.000000 0.000000 0.000000 21.927281 15.057154 15.526350 36.288460 23.685069 -0.249091 -6.244555 46.846761 -4.849119 0.000000 0.000000 0.000000
-0.776566 0.157053 0.442330 -3.386325 -0.339539 -67.484030 12.922385 1.445551 -12.138517 -34.549628 4.277642 4.555156 18.561261 31.603056 6.372019 0.000000 0.000000 0.000000 30.540753 22.030578 -50.120837 -34.946153 29.269791 77.126934 12.886528 7.524554 31.944550 0.000000 0.000000 0.000000 -19.183020 -17.057596 -88.084706 -18.952554 10.287746 14.605295 79.770930 8.625140 98.604134 3.968384 -16.208089 27.216502 0.000000 0.000000 0.000000 14.418838 -11.435825 -6.370837 -35.020138 11.093215 -10.937547 -129.823590 -82.236782 85.356668 0.000000 0.000000 0.000000 21.194302 14.627704 11.985136 38.138933 19.395520 -2.065447 1.305162 44.033625 -2.268481 0.000000 0.000000 0.000000
-0.776901 0.161845 0.440167 -3.323593 0.028880 -67.921590 10.251155 0.981037 -11.103272 -33.021505 4.296346 5.369114 22.273941 37.892514 -0.261332 0.000000 0.000000 0.000000 27.983057 19.666784 -46.634749 -34.886798 26.060727 70.166567 14.005992 11.260119 28.267897 0.000000 0.000000 0.000000 -16.785735 -15.419456 -89.417909 -16.879887 8.333610 9.543858 70.679749 5.831954 99.798749 0.907373 -13.892227 31.072106 0.000000 0.000000 0.000000 16.639465 -6.105494 -5.743822 -31.508613 5.468655 -9.396844 28.595151 -87.546600 -59.782098 0.000000 0.000000 0.000000 29.360083 13.220265 16.839900 32.583616 15.646360 -5.845860 4.416703 49.459265 -2.918239 0.000000 0.000000 0.000000
-0.776935 0.166949 0.439390 -2.620732 0.616689 -68.610617 9.253106 0.824869 -10.736841 -32.822145 4.584895 6.574561 22.454564 43.259816 -14.061853 0.000000 0.000000 0.000000 24.689319 16.806133 -42.086375 -30.775963 21.230941 64.635853 6.692826 7.791815 13.222275 0.000000 0.000000 0.000000 -13.375217 -12.511102 -90.899854 -16.498606 7.513585 4.862279 62.529676 4.095808 100.130928 -0.860455 -6.655206 30.021798 0.000000 0.000000 0.000000 17.872141 -4.733174 -3.681114 -27.888905 1.108923 -8.262371 39.824399 -76.665855 -59.052799 0.000000 0.000000 0.000000 31.432654 8.607276 16.021396 32.445808 8.343935 -9.389364 8.150163 61.611543 -0.904687 0.000000 0.000000 0.000000
-0.777338 0.174523 0.439670 -3.468238 0.193811 -69.002177 7.438068 0.487766 -8.519720 -27.199664 3.499385 4.383481 18.260526 36.712750 -20.451622 0.000000 0.000000 0.000000 22.854902 15.156123 -39.387958 -27.679981 18.556559 62.478441 3.188853 7.753893 -0.601253 0.000000 0.000000 0.000000 -13.415349 -12.612236 -90.890285 -13.494079 6.087408 3.855846 54.317747 6.240312 96.660660 2.061663 -7.545487 24.710846 0.000000 0.000000 0.000000 23.986159 0.641384 -1.629334 -32.164582 -7.487867 -9.299548 22.872545 -68.460708 -35.184844 0.000000 0.000000 0.000000 30.922692 3.383161 14.490246 33.545071 -3.271644 -12.731589 36.038376 74.462600 23.141936 0.000000 0.000000 0.000000
-0.776911 0.177012 0.438558 -4.171992 -0.987764 -69.450845 7.146780 0.451801 -7.472954 -26.018535 3.056937 2.492963 18.465612 40.655063 -27.134720 0.000000 0.000000 0.000000 21.602042 14.360188 -37.750403 -24.542313 16.370079 61.914902 -1.288959 3.744874 -16.089010 0.000000 0.000000 0.000000 -13.760323 -12.073758 -89.813991 -11.800425 5.254951 3.057370 46.103624 6.432770 91.642961 1.504097 -2.297581 19.379126 0.000000 0.000000 0.000000 27.561706 1.422847 0.446297 -40.078402 -11.806544 -11.899078 24.221366 -63.081274 -27.938218 0.000000 0.000000 0.000000 22.586524 -1.617175 7.218900 34.114062 -16.291374 -14.772425 99.176148 68.004114 78.531692 0.000000 0.000000 0.000000
-0.774813 0.176558 0.434787 -4.311604 -3.305453 -69.356537 8.445831 0.715270 -7.991066 -26.530349 3.638177 3.460654 15.877646 32.096205 -21.726142 0.000000 0.000000 0.000000 20.834157 15.068252 -39.706499 -22.327937 15.677808 62.890499 -2.699190 3.447878 -23.164173 0.000000 0.000000 0.000000 -15.782861 -11.999539 -89.300622 -9.955279 4.432282 2.938806 41.316415 6.859692 87.204966 4.926510 -1.548343 8.028321 0.000000 0.000000 0.000000 34.728537 2.748020 2.397239 -52.767374 -18.368540 -14.952445 14.192720 -63.008180 -15.819364 0.000000 0.000000 0.000000 6.675338 -3.966019 -1.886621 36.052350 -30.496281 -14.739033 95.350482 56.323505 70.520625 0.000000 0.000000 0.000000
-0.770287 0.173182 0.429393 -4.655847 -6.553657 -69.648707 10.818126 1.019734 -5.845448 -28.560802 3.029919 -1.186373 17.875750 36.401105 -17.809366 0.000000 0.000000 0.000000 20.238384 16.354777 -41.502117 -20.069842 14.091882 62.578215 -2.762771 1.044418 -20.890328 0.000000 0.000000 0.000000 -17.870822 -11.202421 -87.102471 -7.236050 3.056668 -0.036679 34.959909 3.890097 86.467595 7.431146 -3.767318 3.537571 0.000000 0.000000 0.000000 33.662807 -2.133824 2.951834 -63.310938 -20.929861 -16.715742 14.905491 -63.533200 -11.278194 0.000000 0.000000 0.000000 -6.167370 -4.844915 -6.914845 35.165301 -40.626216 -14.237592 99.706293 48.545436 67.010713 0.000000 0.000000 0.000000
-0.763250 0.171459 0.424874 -4.408290 -7.963389 -69.865796 10.534780 0.931218 -4.461395 -33.466852 3.145371 -3.393884 20.366095 38.445920 -7.753704 0.000000 0.000000 0.000000 17.780270 17.690293 -47.587870 -18.823798 14.576855 69.710893 -3.329558 -2.378136 -18.212847 0.000000 0.000000 0.000000 -19.565821 -11.586894 -86.670012 -6.769482 2.919209 2.438391 30.401090 2.253671 80.895975 4.517037 -0.656225 0.598218 0.000000 0.000000 0.000000 33.687609 -0.722378 2.157723 -73.858776 -19.805161 -16.443385 -1.652292 -64.483504 3.541680 0.000000 0.000000 0.000000 -18.086797 -4.709228 -8.789640 29.281644 -42.741811 -10.744272 113.370378 46.998480 80.140646 0.000000 0.000000 0.000000
-0.755398 0.171583 0.422446 -5.018841 -11.876838 -69.912836 12.803059 1.124430 -2.622079 -37.344659 2.989879 -6.789709 21.778883 37.810427 2.625212 0.000000 0.000000 0.000000 15.582516 19.375165 -52.428850 -14.223228 11.426720 74.480053 -3.019368 -3.603687 -12.827166 0.000000 0.000000 0.000000 -22.037889 -10.782471 -85.124951 -2.810163 1.136451 1.387934 24.614708 0.007120 78.367993 8.422366 -5.219149 -3.157959 0.000000 0.000000 0.000000 35.450979 -5.965135 2.410384 -81.689689 -22.754863 -13.003012 9.206287 -60.972831 -0.857500 0.000000 0.000000 0.000000 -22.936445 -4.382555 -7.931239 21.064004 -43.113300 -6.803184 122.788605 50.686371 92.011547 0.000000 0.000000 0.000000
-0.748347 0.170868 0.420971 -5.829108 -13.093427 -70.187414 13.083909 0.724157 1.870522 -41.846431 1.022028 -14.235216 22.377517 40.332542 2.667005 0.000000 0.000000 0.000000 10.046229 18.139799 -58.021753 -7.794876 6.307660 81.725460 -3.238811 -5.436028 -8.770932 0.000000 0.000000 0.000000 -24.518899 -11.886750 -82.373031 0.375850 -0.338035 2.503956 21.286545 -0.220850 74.293005 9.690582 -6.339750 -7.233935 0.000000 0.000000 0.000000 33.541454 -7.637668 2.012233 -85.642865 -25.514390 -7.142791 14.874262 -55.901918 -3.013742 0.000000 0.000000 0.000000 -25.154437 -7.575405 -7.124759 14.088911 -35.821909 -3.577350 129.818695 52.373353 100.269253 0.000000 0.000000 0.000000
